<svg xmlns="http://www.w3.org/2000/svg" width="34.482" height="49.778" viewBox="0 0 34.482 49.778">
  <path id="music" d="M95.6,31.657a20.675,20.675,0,0,0,2.773-9.1,12.708,12.708,0,0,0-1.34-6.315c-1.574-3.224-4.277-5.036-6.889-6.786a19.477,19.477,0,0,1-5.093-4.3l-.234-.314A8.477,8.477,0,0,1,83.04,1.65,1.936,1.936,0,0,0,81.011,0,1.91,1.91,0,0,0,79.23,1.91v34.12a11.078,11.078,0,0,0-5.744-1.57c-5.277,0-9.574,3.435-9.574,7.659s4.3,7.659,9.574,7.659,9.574-3.435,9.574-7.659V19.8a13.783,13.783,0,0,1,8.877,10.435,10.8,10.8,0,0,1-.739,1.045,1.913,1.913,0,1,0,2.872,2.527,14.236,14.236,0,0,0,1.405-1.976A1.2,1.2,0,0,0,95.6,31.657Z" transform="translate(-63.912 0)" fill="#fff"/>
</svg>
